<svg xmlns="http://www.w3.org/2000/svg" width="238" height="336" viewBox="0 0 238 336">
    <g transform="translate(19.385)" style="stroke:#3996d3;stroke-width:1.5px;fill:none">
        <rect width="200" height="200" rx="100" style="stroke:none"/>
        <rect x=".75" y=".75" width="198.5" height="198.5" rx="99.25" style="fill:none"/>
    </g>
    <g data-name="Group 547">
        <g data-name="Group 548">
            <path data-name="Path 8188" d="M85.925 672.82A229.451 229.451 0 0 0 131.876 654c24.592-13.272 20.77 4.27 48.521 5.777s33.234-19.833 51.845-15.729 28.372 24.971 50.49 28.773z" transform="translate(-49.844 -337.033)" style="fill-rule:evenodd;fill:#86d4f0"/>
            <path data-name="Path 8189" d="M282.45 672.746H85.643a.2.2 0 0 1-.052-.4 231.409 231.409 0 0 0 45.907-18.8c6.721-3.636 11.595-5.151 15.8-4.938 3.864.2 6.81 1.868 10.223 3.807a45.506 45.506 0 0 0 22.6 6.884c14.458.786 22.837-4.646 30.228-9.453 6.814-4.423 12.7-8.245 21.652-6.262 8.774 1.933 15.5 7.494 22.6 13.379 7.95 6.578 16.173 13.379 27.869 15.389a.2.2 0 0 1 .149.318.2.2 0 0 1-.183.086zm-195.332-.4H280.39c-10.74-2.424-18.508-8.847-26.031-15.074-7.079-5.857-13.764-11.386-22.441-13.3-8.788-1.937-14.608 1.84-21.346 6.215-7.444 4.831-15.881 10.3-30.47 9.517a45.941 45.941 0 0 1-22.782-6.936c-6.9-3.922-11.46-6.512-25.627 1.135a237.343 237.343 0 0 1-44.571 18.441z" transform="translate(-49.562 -336.756)" style="fill:#242022;fill-rule:evenodd"/>
            <path data-name="Path 8190" d="m212.513 224.186.311 7.742 2.921-.76s2.121 3 1.875 4.91-8.124 9.7-15.493 4.539a4.934 4.934 0 0 1-2.034-5.64l3.366-.939v-9.59" transform="translate(-115.944 -93.955)" style="fill:#fff;fill-rule:evenodd"/>
            <path data-name="Path 8191" d="M207.164 242.289a9.3 9.3 0 0 1-5.428-1.773 5.166 5.166 0 0 1-2.113-5.858.2.2 0 0 1 .139-.141l3.228-.9v-9.436a.2.2 0 1 1 .4 0v9.59a.2.2 0 0 1-.147.2l-3.255.909a4.687 4.687 0 0 0 1.969 5.3 9.241 9.241 0 0 0 9.417.765c3.309-1.462 5.65-4.209 5.775-5.157.2-1.6-1.386-4.092-1.762-4.646l-2.785.725a.2.2 0 0 1-.252-.188l-.321-7.75a.2.2 0 1 1 .4-.016l.3 7.489 2.68-.7a.2.2 0 0 1 .216.079c.087.125 2.163 3.09 1.909 5.049-.153 1.212-2.748 4.04-6.013 5.474a10.842 10.842 0 0 1-4.367.976" transform="translate(-115.668 -93.687)" style="fill:#242022;fill-rule:evenodd"/>
            <path data-name="Path 8192" d="m320.265 438.984 2.22 22.464a16.071 16.071 0 0 0 18.639 14.28l53.559-9.631-2.115-17.136-42.85 4.617-2.623-19.667z" transform="translate(-185.779 -215.527)" style="fill:#fff;fill-rule:evenodd"/>
            <path data-name="Path 8193" d="M338.141 475.878A16.288 16.288 0 0 1 322 461.19l-2.22-22.464a.2.2 0 0 1 .163-.22l26.838-5.07a.2.2 0 0 1 .156.034.2.2 0 0 1 .083.137l2.6 19.473 42.654-4.6a.2.2 0 0 1 .222.176l2.115 17.136a.2.2 0 0 1-.163.224l-53.559 9.631a16.557 16.557 0 0 1-2.742.228M320.2 438.869l2.205 22.281a15.869 15.869 0 0 0 18.405 14.1l53.367-9.6-2.066-16.745-42.654 4.6a.2.2 0 0 1-.222-.174l-2.6-19.457z" transform="translate(-185.496 -215.249)" style="fill:#242022;fill-rule:evenodd"/>
            <path data-name="Path 8194" d="m432.365 475.725 2.508 18.884 3.235-.582-2.651-18.635z" transform="translate(-250.806 -239.572)" style="fill:#6247ea;fill-rule:evenodd"/>
            <path data-name="Path 8195" d="M434.594 494.534a.2.2 0 0 1-.2-.174l-2.508-18.883a.2.2 0 0 1 .178-.228l3.091-.333a.2.2 0 0 1 .222.172l2.652 18.635a.2.2 0 0 1-.164.228l-3.228.582zm-2.282-18.905 2.456 18.469 2.835-.511-2.6-18.249z" transform="translate(-250.527 -239.295)" style="fill:#242022;fill-rule:evenodd"/>
            <path data-name="Path 8196" d="M507.666 472.105s20.526 7.813 20.905 18.061-27.288-2.375-27.288-2.375 4.058-15.272 6.382-15.686" transform="translate(-290.784 -237.667)" style="fill:#fff;fill-rule:evenodd"/>
            <path data-name="Path 8197" d="M522.932 494.1a39.205 39.205 0 0 1-11.157-2.248 111.665 111.665 0 0 1-10.854-4.161.2.2 0 0 1-.113-.236c.42-1.575 4.161-15.407 6.544-15.833a.21.21 0 0 1 .107.01 67.931 67.931 0 0 1 10.346 5.2c6.931 4.331 10.529 8.715 10.695 13.038a3.525 3.525 0 0 1-1.507 3.288 7.342 7.342 0 0 1-4.06.937m-21.689-6.695a111.212 111.212 0 0 0 10.656 4.076c7.484 2.39 12.622 2.86 14.862 1.359a3.112 3.112 0 0 0 1.328-2.939c-.361-9.734-19.521-17.388-20.718-17.857-.525.156-1.691 1.432-3.856 7.851a141.033 141.033 0 0 0-2.272 7.51" transform="translate(-290.504 -237.387)" style="fill:#242022;fill-rule:evenodd"/>
            <path data-name="Path 8198" d="M534.455 505.735a13.107 13.107 0 0 1 8.348-11.42" transform="translate(-310.026 -250.541)" style="fill:#fff;fill-rule:evenodd"/>
            <path data-name="Path 8199" d="M534.176 505.664a.2.2 0 0 1-.2-.2c0-.084.272-8.443 8.475-11.606a.2.2 0 1 1 .143.377c-7.946 3.062-8.215 11.155-8.217 11.237a.2.2 0 0 1-.2.194" transform="translate(-309.747 -250.267)" style="fill:#242022;fill-rule:evenodd"/>
            <path data-name="Path 8200" d="M538.253 487.01a.2.2 0 0 1-.2-.182c-.419-4.155-2.75-8.128-6.923-11.81a36.511 36.511 0 0 0-8.235-5.421 25.818 25.818 0 0 1-4.843-2.927.2.2 0 1 1 .25-.315 25.6 25.6 0 0 0 4.758 2.874c.583.265 14.287 6.617 15.391 17.557a.2.2 0 0 1-.179.222z" transform="translate(-300.466 -234.309)" style="fill:#242022;fill-rule:evenodd"/>
            <path data-name="Path 8201" d="m260.394 524.345 14.111 28.472 23.874-12.238L278.182 495z" transform="translate(-151.05 -250.94)" style="fill:#fff;fill-rule:evenodd"/>
            <path data-name="Path 8202" d="M274.217 552.749a.169.169 0 0 1-.063-.012.187.187 0 0 1-.117-.1l-14.113-28.48a.2.2 0 0 1 0-.2l17.8-29.322a.2.2 0 0 1 .357.022l20.195 45.575a.2.2 0 0 1-.093.263l-23.873 12.236a.22.22 0 0 1-.093.018m-13.881-28.665 13.972 28.189 23.521-12.056-19.961-45.042z" transform="translate(-150.762 -250.669)" style="fill:#242022;fill-rule:evenodd"/>
            <path data-name="Path 8203" d="m183.627 336.048 19.291 55.844a28.868 28.868 0 0 1-53.405 21.727L133.2 378.83l23.262-12.438-2.882-6.666a49.881 49.881 0 0 1-3.858-24.593l.605-6.223z" transform="translate(-77.265 -154.66)" style="fill:#fff;fill-rule:evenodd"/>
            <path data-name="Path 8204" d="M175.36 430.173a29.056 29.056 0 0 1-26.3-16.74l-16.321-34.787a.2.2 0 0 1 .087-.264l23.1-12.345-2.807-6.5a50.216 50.216 0 0 1-3.874-24.69l.605-6.225a.2.2 0 0 1 .244-.178l33.305 7.138a.2.2 0 0 1 .147.132l19.3 55.838a29.118 29.118 0 0 1-27.478 38.619zm-42.174-51.526 16.24 34.614a28.657 28.657 0 0 0 53.03-21.574L183.2 335.94l-32.975-7.069-.581 6a49.784 49.784 0 0 0 3.844 24.5l2.882 6.666a.2.2 0 0 1-.091.259z" transform="translate(-76.987 -154.389)" style="fill:#242022;fill-rule:evenodd"/>
            <path data-name="Path 8205" d="M207.4 456.392a.2.2 0 0 1-.181-.111l-19.1-38.4a.2.2 0 1 1 .361-.18l19.1 38.395a.2.2 0 0 1-.091.273.2.2 0 0 1-.089.02" transform="translate(-109.115 -206.064)" style="fill:#242022;fill-rule:evenodd"/>
            <path data-name="Path 8206" d="m265.287 100.4-3.683-12.8a2.159 2.159 0 1 1 3.955-1.731l5.162 11.816" transform="translate(-151.647 -13.021)" style="fill:#fff;fill-rule:evenodd"/>
            <path data-name="Path 8207" d="M265 100.31a.2.2 0 0 1-.2-.145l-3.672-12.79a2.361 2.361 0 1 1 4.332-1.881l5.16 11.816a.2.2 0 1 1-.369.161l-5.16-11.816a1.957 1.957 0 1 0-3.586 1.569.112.112 0 0 1 0 .024l3.683 12.8a.2.2 0 0 1-.137.25.188.188 0 0 1-.048.008" transform="translate(-151.362 -12.734)" style="fill:#242022;fill-rule:evenodd"/>
            <path data-name="Path 8208" d="m270.8 92.687-2.454-12.664a2.159 2.159 0 1 1 4.24-.822l2.452 12.661" transform="translate(-155.639 -8.896)" style="fill:#fff;fill-rule:evenodd"/>
            <path data-name="Path 8209" d="M270.515 92.612a.2.2 0 0 1-.2-.164l-2.454-12.66a2.364 2.364 0 1 1 4.641-.9l2.454 12.656a.205.205 0 1 1-.4.076L272.1 78.962a1.957 1.957 0 1 0-3.834.745l2.454 12.66a.2.2 0 0 1-.03.153.2.2 0 0 1-.129.086z" transform="translate(-155.355 -8.619)" style="fill:#242022;fill-rule:evenodd"/>
            <path data-name="Path 8210" d="M150 133.083s-20.213 7.348-36.391-.472-17.689-25.751-1.067-25.759S109.387 85.184 123.5 75.8s24.267 13.787 31.608 15.149 7.583-5.514 12.2-.79.189 8.627 3.812 10.129 9.123.113 11.437 10.376S170.01 128.378 150 133.083" transform="translate(-58.446 -6.645)" style="fill:#fe93c0;fill-rule:evenodd"/>
            <path data-name="Path 8211" d="M130.7 136.133a40.265 40.265 0 0 1-17.455-3.616 25.331 25.331 0 0 1-10.469-8.887c-2.153-3.369-2.956-6.9-2.262-9.937 1.059-4.645 5.341-7.312 11.746-7.314 2.791 0 4.663-.606 5.731-1.876 1.8-2.129 1.172-5.858.448-10.186-1.12-6.684-2.389-14.258 4.673-18.956 9.472-6.3 17.189 1.844 23.388 8.388 3.19 3.367 5.947 6.278 8.37 6.724a8.31 8.31 0 0 0 6.686-1.448c1.709-1.065 3.059-1.907 5.626.717a7.831 7.831 0 0 1 2.318 6.777c-.079 1.6-.131 2.662 1.427 3.308a14.847 14.847 0 0 0 2.466.693c3.392.752 7.236 1.6 9.08 9.825 1.112 4.922-1.58 9.469-8 13.513-5.616 3.537-13.923 6.615-24.7 9.15a61.5 61.5 0 0 1-12.162 2.7 57.307 57.307 0 0 1-6.911.428m-.731-62.615a11.82 11.82 0 0 0-6.633 2.181c-6.847 4.553-5.6 11.99-4.5 18.552.74 4.421 1.382 8.241-.539 10.5-1.146 1.357-3.122 2.02-6.036 2.02-6.2 0-10.34 2.555-11.355 7-.67 2.933.115 6.352 2.208 9.631a25.012 25.012 0 0 0 10.305 8.744c8.31 4.017 17.715 3.93 24.14 3.151a61.021 61.021 0 0 0 12.1-2.686h.022c10.737-2.523 19.011-5.585 24.59-9.089 6.255-3.943 8.889-8.344 7.819-13.083-1.8-7.97-5.509-8.792-8.782-9.52a15.327 15.327 0 0 1-2.534-.713c-1.816-.755-1.751-2.121-1.673-3.7a7.51 7.51 0 0 0-2.205-6.473c-2.339-2.394-3.447-1.7-5.124-.657a8.67 8.67 0 0 1-6.972 1.5c-2.554-.472-5.351-3.434-8.59-6.843-4.56-4.829-9.958-10.525-16.238-10.525z" transform="translate(-58.164 -6.37)" style="fill:#242022;fill-rule:evenodd"/>
            <path data-name="Path 8212" d="m275.777 88.421-2.238-12.7a2.159 2.159 0 1 1 4.252-.752l2.238 12.7 2.585 13.45-10.514 2.224-1.473-9.554" transform="translate(-156.984 -6.423)" style="fill:#fff;fill-rule:evenodd"/>
            <path data-name="Path 8213" d="M271.819 103.087a.2.2 0 0 1-.115-.037.2.2 0 0 1-.085-.135l-1.473-9.554a.2.2 0 1 1 .4-.061l1.441 9.342L282.1 100.5l-2.551-13.244-2.238-12.7a1.957 1.957 0 0 0-3.854.681l2.24 12.711a.2.2 0 1 1-.4.071l-2.24-12.7a2.361 2.361 0 1 1 4.641-.822l2.239 12.7 2.583 13.446a.2.2 0 0 1-.155.235l-10.5 2.22z" transform="translate(-156.705 -5.964)" style="fill:#242022;fill-rule:evenodd"/>
            <path data-name="Path 8214" d="m311.358 90.092-1.07-12.436a2.154 2.154 0 1 0-4.306-.131l-.417 12.888" transform="translate(-177.252 -7.726)" style="fill:#fff;fill-rule:evenodd"/>
            <path data-name="Path 8215" d="M305.267 90.408a.2.2 0 0 1-.2-.2l.418-12.89a2.361 2.361 0 0 1 4.718.141l1.07 12.424a.2.2 0 1 1-.4.034L309.8 77.481a.12.12 0 0 1 0-.024 1.957 1.957 0 1 0-3.911-.127l-.417 12.888a.2.2 0 0 1-.2.19" transform="translate(-176.962 -7.528)" style="fill:#242022;fill-rule:evenodd"/>
            <path data-name="Path 8216" d="m302.913 86.458-1.126-13.331a2.159 2.159 0 1 0-4.242.806l2.407 12.67" transform="translate(-172.578 -5.371)" style="fill:#fff;fill-rule:evenodd"/>
            <path data-name="Path 8217" d="M299.669 86.509a.2.2 0 0 1-.2-.164l-2.407-12.67a2.362 2.362 0 1 1 4.641-.883v.02l1.124 13.331a.2.2 0 1 1-.4.034l-1.127-13.33a1.957 1.957 0 0 0-3.834.744l2.407 12.668a.2.2 0 0 1-.032.152.2.2 0 0 1-.13.084z" transform="translate(-172.294 -5.081)" style="fill:#242022;fill-rule:evenodd"/>
            <path data-name="Path 8218" d="m435.456 475.392 11.22 17.094-3.761.677-10.55-17.437z" transform="translate(-250.806 -239.572)" style="fill:#6247ea;fill-rule:evenodd"/>
            <path data-name="Path 8219" d="M442.637 493.076a.2.2 0 0 1-.173-.1l-10.55-17.437a.214.214 0 0 1 .16-.313l3.092-.333a.2.2 0 0 1 .2.089l11.22 17.1a.2.2 0 0 1-.133.309l-3.763.677zM432.424 475.6l10.313 17.047 3.326-.606-10.986-16.737z" transform="translate(-250.528 -239.281)" style="fill:#242022;fill-rule:evenodd"/>
            <path data-name="Path 8220" d="m18.171 310.529-13.28 2.46a2.162 2.162 0 0 1-.783-4.252l12.669-2.337" transform="translate(-1.359 -141.61)" style="fill:#fff;fill-rule:evenodd"/>
            <path data-name="Path 8221" d="M4.209 312.944a2.363 2.363 0 0 1-.426-4.688l12.67-2.345a.2.2 0 1 1 .073.4l-12.668 2.341a1.959 1.959 0 1 0 .71 3.851l13.28-2.458a.205.205 0 0 1 .073.4L4.643 312.9a2.421 2.421 0 0 1-.434.04" transform="translate(-1.072 -141.326)" style="fill:#242022;fill-rule:evenodd"/>
            <path data-name="Path 8222" d="M17.266 282.121a3.968 3.968 0 0 0-1.152-4.926l-1.826-1.4a2.161 2.161 0 1 1 2.623-3.434l2.159 1.654v.01a6.9 6.9 0 0 1 2.389 5.23l5.811-1.327 1.663 14.963-9.5 2.02-12.67 2.343A2.161 2.161 0 0 1 5.976 293l12.67-2.351" transform="translate(-2.443 -121.62)" style="fill:#fff;fill-rule:evenodd"/>
            <path data-name="Path 8223" d="M6.083 297.191a2.364 2.364 0 0 1-.424-4.688l12.67-2.343a.205.205 0 0 1 .073.4L5.734 292.9a1.959 1.959 0 1 0 .71 3.852l12.67-2.343 9.319-1.976-1.614-14.557-5.6 1.274a.2.2 0 0 1-.246-.2 6.716 6.716 0 0 0-2.32-5.078.148.148 0 0 1-.04-.046l-2.1-1.616a1.959 1.959 0 0 0-2.377 3.113l1.83 1.4a4.158 4.158 0 0 1 1.211 5.185.2.2 0 1 1-.353-.2 3.717 3.717 0 0 0-1.1-4.67l-1.833-1.4a2.363 2.363 0 1 1 2.869-3.755l2.159 1.654a.2.2 0 0 1 .055.066 7.109 7.109 0 0 1 2.4 5.082l5.572-1.264a.214.214 0 0 1 .163.032.2.2 0 0 1 .083.144l1.663 14.973a.2.2 0 0 1-.157.22l-9.5 2.02-12.681 2.349a2.42 2.42 0 0 1-.434.032" transform="translate(-2.163 -121.324)" style="fill:#242022;fill-rule:evenodd"/>
            <path data-name="Path 8224" d="m171.679 180.762-6.883-43.4-16.98 3.5 5.6 35.24-19.445 4.735a8.056 8.056 0 1 1-15.653 3.809L58.909 199.12l1.891 17.058 50.292-12.1-3.866 13.8 33.3 7.138 3.985-28.981 20.217-4.864a9.216 9.216 0 0 0 6.952-10.412" transform="translate(-34.173 -43.625)" style="fill:#fff;fill-rule:evenodd"/>
            <path data-name="Path 8225" d="M140.255 224.936h-.042l-33.305-7.142a.2.2 0 0 1-.153-.252l3.773-13.47-49.956 12.017a.2.2 0 0 1-.248-.174l-1.9-17.057a.2.2 0 0 1 .153-.218L118 184.174a.2.2 0 0 1 .151.024.2.2 0 0 1 .093.125 7.853 7.853 0 1 0 15.26-3.714.19.19 0 0 1 .141-.24l19.255-4.689-5.565-35.062a.2.2 0 0 1 .157-.23l16.98-3.5a.2.2 0 0 1 .24.168l6.883 43.408a9.463 9.463 0 0 1-7.1 10.633l-20.082 4.831-3.967 28.837a.2.2 0 0 1-.2.174m-33.046-7.495 32.882 7.049 3.957-28.766a.2.2 0 0 1 .153-.168l20.216-4.866a9.059 9.059 0 0 0 6.79-10.178l-6.849-43.192-16.585 3.421 5.571 35.048a.2.2 0 0 1-.151.228l-19.248 4.686a8.264 8.264 0 0 1-7.686 10.055h-.361a8.275 8.275 0 0 1-7.989-6.152l-59.047 14.38 1.847 16.654 50.072-12.043a.206.206 0 0 1 .25.259z" transform="translate(-33.893 -43.347)" style="fill:#242022;fill-rule:evenodd"/>
            <path data-name="Path 8226" d="M60.219 282.068s7.6-1.511 10.925-6.666 6.256-7.7 14.579-7.839 15.118-2.341 14.88-7.429l-41.694 10.155z" transform="translate(-34.173 -114.793)" style="fill:#6247ea;fill-rule:evenodd"/>
            <path data-name="Path 8227" d="M59.939 281.986a.2.2 0 0 1-.119-.039.2.2 0 0 1-.083-.141l-1.31-11.786a.2.2 0 0 1 .153-.218l41.694-10.152a.2.2 0 0 1 .25.186 5.026 5.026 0 0 1-1.413 3.791c-2.22 2.373-7.074 3.74-13.661 3.85-8.152.137-11.036 2.5-14.414 7.746-3.33 5.171-10.979 6.744-11.056 6.758a.133.133 0 0 1-.042 0m-1.086-11.834 1.265 11.388c1.253-.3 7.654-1.992 10.58-6.534 3.39-5.263 6.457-7.792 14.746-7.932 6.476-.107 11.224-1.43 13.373-3.723a4.62 4.62 0 0 0 1.309-3.244z" transform="translate(-33.893 -114.509)" style="fill:#242022;fill-rule:evenodd"/>
            <path data-name="Path 8228" d="M305.626 163.254s-8.713 4.167-5.129 12.4 4.944 10.448 2.526 14.88-5.555 9.98-3.8 16.765l4.617-1.111a9.217 9.217 0 0 0 6.942-10.406z" transform="translate(-173.278 -58.634)" style="fill:#6247ea;fill-rule:evenodd"/>
            <path data-name="Path 8229" d="M298.936 207.21a.2.2 0 0 1-.2-.152c-1.744-6.718 1.259-12.216 3.671-16.635l.145-.267c2.171-3.979 1.275-6.021-1.7-12.79-.262-.606-.543-1.236-.835-1.913-3.616-8.315 5.138-12.62 5.226-12.662a.2.2 0 0 1 .286.148l5.158 32.519a9.462 9.462 0 0 1-7.1 10.632l-4.617 1.111a.165.165 0 0 1-.04.008m6.245-43.927a13.143 13.143 0 0 0-3.6 2.943 8.155 8.155 0 0 0-1.185 9.069l.835 1.911c2.954 6.726 3.949 8.99 1.683 13.145l-.145.266c-2.355 4.313-5.281 9.671-3.683 16.149l4.421-1.064a9.059 9.059 0 0 0 6.79-10.178z" transform="translate(-172.989 -58.353)" style="fill:#242022;fill-rule:evenodd"/>
            <path data-name="Path 8230" d="M175.223 307.87s11.793 3.86 14.317 2.347 11.224-13.773 20.244-8.887L207.3 319.4l-33.3-7.141z" transform="translate(-100.937 -138.01)" style="fill:#6247ea;fill-rule:evenodd"/>
            <path data-name="Path 8231" d="M207 319.332h-.042l-33.305-7.142a.2.2 0 0 1-.153-.252l1.231-4.389a.2.2 0 0 1 .257-.137c.117.038 11.732 3.815 14.149 2.365a17.381 17.381 0 0 0 2.321-2.091c3.8-3.751 10.871-10.729 18.125-6.795a.2.2 0 0 1 .1.2l-2.483 18.063a.213.213 0 0 1-.2.178m-33.053-7.491 32.882 7.049 2.436-17.706c-6.95-3.648-13.823 3.137-17.525 6.791a18.049 18.049 0 0 1-2.4 2.151c-2.421 1.451-12.66-1.745-14.282-2.264z" transform="translate(-100.642 -137.743)" style="fill:#242022;fill-rule:evenodd"/>
            <path data-name="Path 8232" d="M196.179 354.681a7.32 7.32 0 0 1-7.317 7.319" transform="translate(-109.556 -169.599)" style="fill:#fff;fill-rule:evenodd"/>
            <path data-name="Path 8233" d="M188.582 361.929a.2.2 0 1 1 0-.4 7.127 7.127 0 0 0 7.118-7.129.2.2 0 1 1 .4 0 7.531 7.531 0 0 1-7.519 7.526" transform="translate(-109.276 -169.321)" style="fill:#242022;fill-rule:evenodd"/>
            <path data-name="Path 8234" d="m124.5 418.056-6.294-13.575 17.255-7.9L141.432 409z" transform="translate(-68.571 -193.886)" style="fill:#fff;fill-rule:evenodd"/>
            <path data-name="Path 8235" d="M124.227 417.995a.224.224 0 0 1-.063 0 .2.2 0 0 1-.119-.107l-6.3-13.575a.2.2 0 0 1 0-.155.2.2 0 0 1 .1-.113l17.257-7.9a.2.2 0 0 1 .266.095l5.967 12.424a.2.2 0 0 1-.087.265l-16.926 9.042a.2.2 0 0 1-.1.024m-6.022-13.678 6.13 13.2 16.569-8.861-5.808-12.068z" transform="translate(-68.296 -193.623)" style="fill:#242022;fill-rule:evenodd"/>
            <path data-name="Path 8236" d="m297.977 617.588 8.3 13.5 18.252-9.8-8.267-13.068z" transform="translate(-172.851 -316.568)" style="fill:#fff;fill-rule:evenodd"/>
            <path data-name="Path 8237" d="M306 631.012a.2.2 0 0 1-.172-.1l-8.3-13.5a.2.2 0 0 1 .079-.285l18.28-9.372a.2.2 0 0 1 .262.073l8.273 13.068a.2.2 0 0 1-.074.285l-18.248 9.808a.2.2 0 0 1-.1.023m-8.009-13.624 8.082 13.153 17.893-9.613-8.058-12.728z" transform="translate(-172.573 -316.287)" style="fill:#242022;fill-rule:evenodd"/>
            <path data-name="Path 8238" d="m204.9 200.289 3.13 1.365a5.34 5.34 0 0 0 7.3-6.261l-2.956-11.216a8.538 8.538 0 0 0-11.272-5.8l-.65.249a8.528 8.528 0 0 0-5.222 5.8l-.438 1.658a8.541 8.541 0 0 0 1.633 7.565l4.086 4.284" transform="translate(-112.831 -67.076)" style="fill:#fff;fill-rule:evenodd"/>
            <path data-name="Path 8239" d="M209.9 202.046a5.534 5.534 0 0 1-2.22-.462l-3.13-1.366a.2.2 0 0 1 .161-.369l3.13 1.365a5.139 5.139 0 0 0 7.02-6.027l-2.961-11.216a8.324 8.324 0 0 0-11-5.655l-.652.246a8.351 8.351 0 0 0-5.1 5.668l-.436 1.658a8.363 8.363 0 0 0 1.594 7.384l4.07 4.27a.2.2 0 1 1-.287.285l-4.08-4.282a8.768 8.768 0 0 1-1.681-7.754l.436-1.658a8.754 8.754 0 0 1 5.346-5.942l.652-.247a8.722 8.722 0 0 1 11.532 5.94l2.956 11.216a5.549 5.549 0 0 1-5.357 6.962z" transform="translate(-112.564 -66.819)" style="fill:#242022;fill-rule:evenodd"/>
            <path data-name="Path 8240" d="M196.757 206.243a3.5 3.5 0 1 0 1.211 4.645" transform="translate(-111.032 -83.244)" style="fill:#fff;fill-rule:evenodd"/>
            <path data-name="Path 8241" d="M194.629 212.634a3.7 3.7 0 1 1 1.962-6.839.2.2 0 0 1-.214.343 3.295 3.295 0 1 0 1.142 4.387.2.2 0 1 1 .353.2 3.7 3.7 0 0 1-2.865 1.892 3.427 3.427 0 0 1-.378.014" transform="translate(-110.759 -82.968)" style="fill:#242022;fill-rule:evenodd"/>
            <path data-name="Path 8242" d="M196.173 213.278a.2.2 0 0 1-.2-.182 2 2 0 0 0-2.192-1.792.2.2 0 0 1-.22-.179.08.08 0 0 1 0-.02.2.2 0 0 1 .182-.2 2 2 0 0 0 1.79-2.192v-.022a.2.2 0 1 1 .4-.02 2 2 0 0 0 2.192 1.792.2.2 0 0 1 .22.182.055.055 0 0 1 0 .02.2.2 0 0 1-.181.2 2.005 2.005 0 0 0-1.79 2.193v.021a.2.2 0 0 1-.182.2zm-1.451-2.27a2.408 2.408 0 0 1 1.354 1.109 2.424 2.424 0 0 1 1.108-1.357 2.424 2.424 0 0 1-1.354-1.107 2.423 2.423 0 0 1-1.108 1.355" transform="translate(-112.281 -84.848)" style="fill:#242022;fill-rule:evenodd"/>
            <path data-name="Path 8243" d="M196.329 212.629a2.408 2.408 0 0 1 1.354 1.109 2.423 2.423 0 0 1 1.108-1.357 2.424 2.424 0 0 1-1.354-1.107 2.423 2.423 0 0 1-1.108 1.355" transform="translate(-113.887 -86.47)" style="fill:#fdf33c;fill-rule:evenodd"/>
            <path data-name="Path 8244" d="M196.185 176.1s-2.639 2.46-.991 8.106l-10.243 1.163s-2.825-12.119 9.347-10.907" transform="translate(-107.122 -65.079)" style="fill:#fe93c0;fill-rule:evenodd"/>
            <path data-name="Path 8245" d="M184.667 185.291a.2.2 0 0 1-.2-.156 14.228 14.228 0 0 1-.284-3.179 8.743 8.743 0 0 1 1.891-5.676c1.659-1.889 4.336-2.66 7.958-2.3a.2.2 0 1 1-.04.4c-3.485-.352-6.054.375-7.614 2.159-2.45 2.789-1.735 7.37-1.554 8.322l9.835-1.115c-1.529-5.536 1.009-7.978 1.112-8.079a.2.2 0 1 1 .275.295c-.024.024-2.525 2.458-.934 7.9a.2.2 0 0 1-.024.17.213.213 0 0 1-.147.089l-10.253 1.161z" transform="translate(-106.838 -64.803)" style="fill:#242022;fill-rule:evenodd"/>
            <path data-name="Path 8246" d="M210.941 173.32a4.347 4.347 0 0 1 4.211 3.482l4.839-1.741s-4.337-9.362-10.053-3.329" transform="translate(-121.781 -62.374)" style="fill:#fe93c0;fill-rule:evenodd"/>
            <path data-name="Path 8247" d="M214.87 176.714a.2.2 0 0 1-.095-.024.2.2 0 0 1-.1-.129 4.112 4.112 0 0 0-4.012-3.329.2.2 0 0 1 0-.4 4.58 4.58 0 0 1 4.357 3.42l4.407-1.59c-.458-.895-2.482-4.532-5.291-4.991-1.447-.238-2.9.4-4.332 1.915a.2.2 0 0 1-.285-.287c1.526-1.616 3.1-2.295 4.692-2.036a7.013 7.013 0 0 1 4.147 2.935 14.475 14.475 0 0 1 1.542 2.484.206.206 0 0 1-.117.275l-4.831 1.743a.205.205 0 0 1-.081.018" transform="translate(-121.503 -62.083)" style="fill:#242022;fill-rule:evenodd"/>
            <path data-name="Path 8248" d="M228.391 201.59a.756.756 0 0 1 .456 1.442" transform="translate(-132.486 -80.836)" style="fill:#fff;fill-rule:evenodd"/>
            <path data-name="Path 8249" d="M228.549 202.932a.2.2 0 0 1-.06-.394.558.558 0 0 0 .323-.275.539.539 0 0 0 .036-.422.552.552 0 0 0-.694-.361.2.2 0 1 1-.123-.384.957.957 0 1 1 .579 1.818.2.2 0 0 1-.06.018" transform="translate(-132.188 -80.528)" style="fill:#242022;fill-rule:evenodd"/>
            <path data-name="Path 8250" d="M123.552 141.027s-11.232-9.212-5.139-12.355 14.569 2.895 17.6-4.532-3.632-23.559 5.954-24.7 12.471 20.463 18.141 17.32 7.8-5.2 10.21-2.935 1.211 7.851 4.827 8" transform="translate(-67.639 -21.618)" style="fill:#fe93c0;fill-rule:evenodd"/>
            <path data-name="Path 8251" d="M123.274 140.947a.2.2 0 0 1-.129-.045c-.3-.25-7.43-6.146-7-10.176a3.166 3.166 0 0 1 1.9-2.517c2.541-1.311 5.436-1.06 8.235-.82 4.036.348 7.533.646 9.266-3.609 1.114-2.735.89-6.761.672-10.653-.367-6.6-.749-13.434 5.448-14.171 5.325-.632 8.54 5.389 11.379 10.7 1.737 3.256 3.382 6.332 5.138 6.851a1.939 1.939 0 0 0 1.549-.2c1.021-.566 1.933-1.1 2.74-1.572 3.739-2.193 5.618-3.292 7.706-1.333a8.08 8.08 0 0 1 1.816 4.039c.5 2.048.941 3.818 2.89 3.9a.2.2 0 0 1-.016.4c-2.252-.091-2.769-2.181-3.265-4.2a7.718 7.718 0 0 0-1.693-3.85c-1.868-1.753-3.547-.77-7.226 1.385-.807.473-1.723 1.01-2.748 1.577a2.352 2.352 0 0 1-1.86.245c-1.917-.567-3.521-3.571-5.38-7.049-2.777-5.2-5.925-11.091-10.976-10.491-5.816.693-5.462 7.033-5.089 13.747.22 3.937.446 8.009-.7 10.828-1.846 4.531-5.65 4.2-9.674 3.858-2.743-.236-5.577-.479-8.015.778a2.753 2.753 0 0 0-1.685 2.2c-.4 3.814 6.786 9.762 6.861 9.82a.2.2 0 0 1-.139.356" transform="translate(-67.361 -21.336)" style="fill:#242022;fill-rule:evenodd"/>
            <path data-name="Path 8252" d="m345.4 206.339-.944 13.434 2.318 10.087 10.092-12.04-3.249-13.711z" transform="translate(-199.814 -82.317)" style="fill:#fff;fill-rule:evenodd"/>
            <path data-name="Path 8253" d="M346.505 229.8h-.048a.2.2 0 0 1-.15-.149l-2.316-10.087a.2.2 0 0 1 0-.059l.942-13.434a.2.2 0 0 1 .149-.182l8.217-2.222a.2.2 0 0 1 .248.15l3.253 13.713a.2.2 0 0 1-.04.178l-10.09 12.038a.2.2 0 0 1-.161.058m-2.115-10.3 2.22 9.661 9.767-11.65L353.2 204.1l-7.87 2.137z" transform="translate(-199.541 -82.059)" style="fill:#242022;fill-rule:evenodd"/>
            <path data-name="Path 8254" d="M348.724 159.478a9.209 9.209 0 0 0-17.606-1.01c-.2.582-3.8 16.932-3.794 17.169a1.478 1.478 0 0 0 .052.372c.68 2.254 4.348 4.892 18.278-3.193 0 0 2.111-1.337 1.746-6.037a9.209 9.209 0 0 0 1.324-7.3" transform="translate(-189.874 -52.352)" style="fill:#fff;fill-rule:evenodd"/>
            <path data-name="Path 8255" d="M331.027 178.307a5.858 5.858 0 0 1-2.161-.364 3.165 3.165 0 0 1-1.969-2.064 1.712 1.712 0 0 1-.06-.418.311.311 0 0 1 0-.063c.149-.992 3.592-16.587 3.8-17.2v-.014a9.413 9.413 0 1 1 16.694 8.449c.345 4.71-1.754 6.1-1.845 6.154-4.578 2.66-10.43 5.514-14.456 5.516m-3.788-2.86a1.334 1.334 0 0 0 .044.315 2.773 2.773 0 0 0 1.731 1.806c2.018.808 6.477.559 16.252-5.115.012 0 2-1.347 1.645-5.847a.2.2 0 0 1 .034-.129 9.011 9.011 0 1 0-15.923-8.148c-.186.509-3.7 16.431-3.783 17.118" transform="translate(-189.59 -52.144)" style="fill:#242022;fill-rule:evenodd"/>
            <path data-name="Path 8256" d="m389.068 85.31 12.856-39.71 26.243-4.6z" transform="translate(-225.691 12.236)" style="fill:#ff4f5b;fill-rule:evenodd"/>
            <path data-name="Path 8257" d="M388.785 85.236a.2.2 0 0 1-.1-.026.2.2 0 0 1-.093-.236l12.857-39.714a.2.2 0 0 1 .158-.135l26.245-4.6a.2.2 0 0 1 .178.331L388.936 85.17a.2.2 0 0 1-.151.066M401.8 45.5l-12.514 38.674 38.075-43.156z" transform="translate(-225.41 12.512)" style="fill:#242022;fill-rule:evenodd"/>
            <path data-name="Path 8258" d="m392.4 109.446 44.44-30.051-8.83 25.753z" transform="translate(-227.625 -10.023)" style="fill:#ff4f5b;fill-rule:evenodd"/>
            <path data-name="Path 8259" d="M392.128 109.367a.2.2 0 0 1-.113-.368l44.44-30.053a.2.2 0 0 1 .3.234l-8.832 25.753a.2.2 0 0 1-.168.135l-35.61 4.3zm44.055-29.748-43.25 29.247 34.653-4.183z" transform="translate(-227.349 -9.742)" style="fill:#242022;fill-rule:evenodd"/>
            <path data-name="Path 8260" d="m451.1 407.586-16.547-6.3-8.012 18.614-11.222-15.274L388.713 415l30.067 32.455a11.318 11.318 0 0 0 19.128-4.405z" transform="translate(-225.485 -196.616)" style="fill:#fff;fill-rule:evenodd"/>
            <path data-name="Path 8261" d="M426.8 451.007h-.068a11.4 11.4 0 0 1-8.378-3.69l-30.067-32.454a.2.2 0 0 1 .075-.325l26.608-10.378a.2.2 0 0 1 .236.069l11.013 15 7.87-18.291a.2.2 0 0 1 .259-.109l16.547 6.3a.2.2 0 0 1 .117.258l-13.2 35.466a.029.029 0 0 1 0 .012 11.5 11.5 0 0 1-11.007 8.148zm-38.017-36.2 29.865 32.237a11.11 11.11 0 0 0 18.784-4.326.126.126 0 0 1 .014-.037l13.116-35.252-16.178-6.159-7.936 18.43a.2.2 0 0 1-.347.041l-11.131-15.15z" transform="translate(-225.207 -196.338)" style="fill:#242022;fill-rule:evenodd"/>
            <path data-name="Path 8262" d="M408.394 127.983a.2.2 0 0 1-.085-.018.2.2 0 0 1-.1-.269l2.573-5.534a.2.2 0 0 1 .117-.107.213.213 0 0 1 .157.012l8 4.136 5.908-13.634a.214.214 0 0 1 .147-.119.2.2 0 0 1 .18.054l12.014 11.656a.2.2 0 0 1-.28.289L425.224 113l-5.882 13.565a.2.2 0 0 1-.276.1l-8-4.139-2.482 5.342a.2.2 0 0 1-.192.117" transform="translate(-236.784 -29.183)" style="fill:#242022;fill-rule:evenodd"/>
            <path data-name="Path 8263" d="M393.725 78.822a.2.2 0 0 1-.063-.394l4.883-1.616-1.653-8.552a.2.2 0 0 1 .16-.237l11.127-2.161-3.87-20.514a.2.2 0 0 1 .032-.153.2.2 0 0 1 .131-.083l26.245-4.6a.2.2 0 0 1 .151.033.2.2 0 0 1-.082.364l-26.041 4.571 3.868 20.511a.2.2 0 0 1-.16.237l-11.126 2.161 1.649 8.526a.2.2 0 0 1-.135.23l-5.041 1.667a.248.248 0 0 1-.07.01" transform="translate(-228.275 12.519)" style="fill:#242022;fill-rule:evenodd"/>
            <path data-name="Path 8264" d="M344.268 181.139a3.607 3.607 0 0 1-3.071 1.529" transform="translate(-197.922 -69.001)" style="fill:#fff;fill-rule:evenodd"/>
            <path data-name="Path 8265" d="M341.051 182.59h-.137a.2.2 0 0 1 0-.4 3.406 3.406 0 0 0 1.719-.4 3.363 3.363 0 0 0 1.181-1.044.2.2 0 0 1 .331.232 3.8 3.8 0 0 1-3.108 1.616z" transform="translate(-197.64 -68.72)" style="fill:#242022;fill-rule:evenodd"/>
            <path data-name="Path 8266" d="M342.653 166.612a3.6 3.6 0 0 1 3.406 2.351" transform="translate(-198.766 -60.58)" style="fill:#fff;fill-rule:evenodd"/>
            <path data-name="Path 8267" d="M345.783 168.881a.2.2 0 0 1-.19-.133 3.393 3.393 0 0 0-3.215-2.222.2.2 0 0 1 0-.4 3.8 3.8 0 0 1 3.6 2.483.2.2 0 0 1-.19.272z" transform="translate(-198.49 -60.296)" style="fill:#242022;fill-rule:evenodd"/>
            <path data-name="Path 8268" d="m331.088 175.349-2.7 2.733 2.527.319" transform="translate(-190.493 -65.645)" style="fill:#fff;fill-rule:evenodd"/>
            <path data-name="Path 8269" d="M330.642 178.335h-.024l-2.526-.317a.2.2 0 0 1-.119-.338l2.7-2.733a.2.2 0 1 1 .288.285l-2.411 2.442 2.121.266a.2.2 0 1 1-.026.4z" transform="translate(-190.218 -65.378)" style="fill:#242022;fill-rule:evenodd"/>
            <path data-name="Path 8270" d="m487.631 421.6 18.7 2.084.956-2.571-18.572-2.024z" transform="translate(-282.865 -206.937)" style="fill:#6247ea;fill-rule:evenodd"/>
            <path data-name="Path 8271" d="M506.065 423.627h-.022l-18.688-2.074a.2.2 0 0 1-.151-.1.2.2 0 0 1-.012-.182l1.082-2.513a.2.2 0 0 1 .2-.119l18.565 2.02a.2.2 0 0 1 .168.271l-.959 2.571a.2.2 0 0 1-.183.125m-18.405-2.456 18.27 2.036.807-2.179-18.161-1.981z" transform="translate(-282.6 -206.674)" style="fill:#242022;fill-rule:evenodd"/>
            <path data-name="Path 8272" d="m495.791 403.324 15.271 10.042.957-2.571-12.434-8.4-2.918-1.109z" transform="translate(-287.598 -196.616)" style="fill:#6247ea;fill-rule:evenodd"/>
            <path data-name="Path 8273" d="M510.782 413.288a.205.205 0 0 1-.111-.032L495.4 403.213a.2.2 0 0 1-.075-.248l.876-2.038a.2.2 0 0 1 .258-.109l2.916 1.111a.174.174 0 0 1 .04.022l12.436 8.4a.2.2 0 0 1 .077.238l-.959 2.571a.2.2 0 0 1-.125.121.177.177 0 0 1-.063.01m-15.019-10.319 14.918 9.81.807-2.186L499.2 402.3l-2.714-1.034z" transform="translate(-287.318 -196.335)" style="fill:#242022;fill-rule:evenodd"/>
            <path data-name="Path 8274" d="m487.631 421.6 15.342 11.1 1.072-2.882-15.332-10.731z" transform="translate(-282.865 -206.937)" style="fill:#6247ea;fill-rule:evenodd"/>
            <path data-name="Path 8275" d="M502.7 432.618a.2.2 0 0 1-.119-.038l-15.334-11.11a.2.2 0 0 1-.067-.244l1.082-2.513a.2.2 0 0 1 .3-.085l15.338 10.734a.2.2 0 0 1 .075.236l-1.074 2.88a.237.237 0 0 1-.2.139m-15.091-11.373 15 10.852.924-2.486-15-10.5z" transform="translate(-282.593 -206.647)" style="fill:#242022;fill-rule:evenodd"/>
            <path data-name="Path 8276" d="m500.837 331.231-2.96 14.914 16.547 6.3s1.336-11.85 1.765-12.479 14.62-24.288 7.981-33.8z" transform="translate(-288.808 -141.473)" style="fill:#fff;fill-rule:evenodd"/>
            <path data-name="Path 8277" d="M514.142 352.365a.229.229 0 0 1-.073-.012l-16.547-6.3a.2.2 0 0 1-.127-.228l2.96-14.913a.2.2 0 0 1 .05-.1l23.331-25.07a.2.2 0 0 1 .315.022c6.766 9.7-7.821 33.8-7.979 34.032-.3.483-1.211 7.855-1.733 12.39a.2.2 0 0 1-.094.149.212.212 0 0 1-.1.028m-16.315-6.627 16.143 6.144c.281-2.466 1.352-11.7 1.772-12.321.153-.226 14.4-23.733 8.12-33.366l-23.115 24.85z" transform="translate(-288.526 -141.194)" style="fill:#242022;fill-rule:evenodd"/>
            <path data-name="Path 8278" d="M511.883 314.294c6.212-7.3 13.428-11.352 16.117-9.058s-.168 10.068-6.38 17.365-13.428 11.352-16.117 9.058.168-10.068 6.38-17.365" transform="translate(-292.645 -140.565)" style="fill:#fff;fill-rule:evenodd"/>
            <path data-name="Path 8279" d="M507.218 332.262a3.147 3.147 0 0 1-2.111-.691c-1.37-1.167-1.443-3.664-.2-7.029a41.285 41.285 0 0 1 16-18.791c3.124-1.755 5.6-2.078 6.966-.909s1.445 3.664.2 7.029a41.279 41.279 0 0 1-16 18.791 10.508 10.508 0 0 1-4.855 1.6m18.542-27.7a10.141 10.141 0 0 0-4.66 1.538 40.87 40.87 0 0 0-15.821 18.583c-1.156 3.147-1.124 5.547.091 6.583 2.6 2.222 9.7-1.834 15.832-9.035s9-14.862 6.4-17.079a2.758 2.758 0 0 0-1.848-.59z" transform="translate(-292.374 -140.309)" style="fill:#242022;fill-rule:evenodd"/>
            <path data-name="Path 8280" d="M342.513 173.023a.519.519 0 1 1-.518.519.519.519 0 0 1 .518-.519" transform="translate(-198.384 -64.297)" style="fill:#fff;fill-rule:evenodd"/>
            <path data-name="Path 8281" d="M342.232 173.984a.721.721 0 1 1 .619-.356.725.725 0 0 1-.619.356m0-1.036a.273.273 0 0 0-.079 0 .315.315 0 0 0-.228.384.317.317 0 0 0 .385.228.326.326 0 0 0 .2-.145.317.317 0 0 0-.272-.477z" transform="translate(-198.103 -64.018)" style="fill:#242022;fill-rule:evenodd"/>
            <path data-name="Path 8282" d="M353.377 148.626c-.181.045-.361.1-.537.151a7.038 7.038 0 0 0 5.394 9.4 3.45 3.45 0 0 0 4.976 4.719v-.153a9.275 9.275 0 0 0 1.237-2.67 9.17 9.17 0 0 0 .2-4.1 10.584 10.584 0 0 0-.113-.546 9.266 9.266 0 0 0-11.159-6.8" transform="translate(-204.417 -50.005)" style="fill:#ff4f5b;fill-rule:evenodd"/>
            <path data-name="Path 8283" d="M360.7 163.638a3.656 3.656 0 0 1-3.09-5.6 7.242 7.242 0 0 1-5.247-9.612.2.2 0 0 1 .131-.121c.2-.061.373-.111.547-.153a9.465 9.465 0 0 1 11.393 6.946c.042.172.079.353.115.556a9.3 9.3 0 0 1-.2 4.2 9.459 9.459 0 0 1-1.225 2.672v.083a.2.2 0 0 1-.073.168 3.632 3.632 0 0 1-1.435.745 3.681 3.681 0 0 1-.916.119m-7.989-14.969a6.836 6.836 0 0 0 5.273 9.037.2.2 0 0 1 .127.321 3.248 3.248 0 0 0 4.607 4.506v-.046a.221.221 0 0 1 .034-.129 9.08 9.08 0 0 0 1.211-2.614 8.931 8.931 0 0 0 .2-4.013c-.034-.2-.07-.368-.109-.531a9.066 9.066 0 0 0-10.9-6.65 3.394 3.394 0 0 0-.448.119" transform="translate(-204.135 -49.729)" style="fill:#242022;fill-rule:evenodd"/>
            <path data-name="Path 8284" d="M365.32 187.467a3.6 3.6 0 1 1 .486 4.926" transform="translate(-211.915 -71.863)" style="fill:#fff;fill-rule:evenodd"/>
            <path data-name="Path 8285" d="M367.88 193.2a3.8 3.8 0 0 1-2.486-.925.2.2 0 1 1 .264-.307 3.4 3.4 0 1 0-.458-4.646.2.2 0 0 1-.319-.248 3.8 3.8 0 1 1 3 6.128z" transform="translate(-211.636 -71.592)" style="fill:#242022;fill-rule:evenodd"/>
            <path data-name="Path 8286" d="M369.482 189.231a2.266 2.266 0 1 1-2.264 2.266 2.265 2.265 0 0 1 2.264-2.266" transform="translate(-213.016 -73.692)" style="fill:#fff;fill-rule:evenodd"/>
            <path data-name="Path 8287" d="M369.861 193.669a.2.2 0 0 1-.2-.151 2.065 2.065 0 0 0-2.514-1.482.2.2 0 0 1-.095-.4 2.066 2.066 0 0 0 1.481-2.517.268.268 0 0 1 0-.05.2.2 0 0 1 .4-.05 2.066 2.066 0 0 0 2.515 1.482.2.2 0 0 1 .246.145.2.2 0 0 1 0 .05.2.2 0 0 1-.151.2 2.069 2.069 0 0 0-1.482 2.516.229.229 0 0 1-.2.253m-1.816-2.074a2.488 2.488 0 0 1 1.568.925 2.482 2.482 0 0 1 .924-1.57 2.478 2.478 0 0 1-1.568-.925 2.481 2.481 0 0 1-.924 1.569" transform="translate(-212.83 -73.466)" style="fill:#242022;fill-rule:evenodd"/>
            <path data-name="Path 8288" d="m293.657 85.444-1.992-12.981a2.159 2.159 0 1 0-4.227.878l2.282 12.711 2.623 13.63.151.537a15.291 15.291 0 0 0 7.9 9.538l8.859 4.413a20.748 20.748 0 0 1 10.707 12.9l3.8 13.412 16.2 12.04-9.371-36.42a20.731 20.731 0 0 0-8.475-8.441l-18.876-10.069-2.472-10.43" transform="translate(-166.706 -4.986)" style="fill:#fff;fill-rule:evenodd"/>
            <path data-name="Path 8289" d="M339.683 152.516a.2.2 0 0 1-.121-.041l-16.2-12.038a.217.217 0 0 1-.073-.107l-3.812-13.416a20.6 20.6 0 0 0-10.6-12.779l-8.86-4.413a15.522 15.522 0 0 1-8-9.663l-.151-.537-2.626-13.647-2.282-12.713a2.364 2.364 0 0 1 4.629-.961l2 12.991a.2.2 0 1 1-.4.061l-1.992-12.981a1.959 1.959 0 1 0-3.834.808l2.282 12.715 2.623 13.628.149.521a15.11 15.11 0 0 0 7.791 9.422l8.861 4.413a21 21 0 0 1 10.81 13.03l3.794 13.349 15.681 11.659-9.222-35.846a20.487 20.487 0 0 0-8.388-8.338L302.86 97.554a.2.2 0 0 1-.1-.131l-2.46-10.437a.2.2 0 1 1 .393-.093l2.441 10.354 18.793 10.03a20.887 20.887 0 0 1 8.566 8.522.185.185 0 0 1 .018.047l9.371 36.423a.192.192 0 0 1-.2.247" transform="translate(-166.432 -4.77)" style="fill:#242022;fill-rule:evenodd"/>
            <path data-name="Path 8290" d="m362.256 248.768 11.476 23.732s-24.677 5.415-47.907 1.054l7.825-34.866 2.318 10.085 10.09-12.04z" transform="translate(-189.005 -101.225)" style="fill:#fff;fill-rule:evenodd"/>
            <path data-name="Path 8291" d="M345.209 275.163a107.7 107.7 0 0 1-19.7-1.689.2.2 0 0 1-.16-.242l7.827-34.867a.209.209 0 0 1 .4 0l2.22 9.7 9.831-11.729a.2.2 0 0 1 .277-.032l16.194 12.04a.194.194 0 0 1 .063.075l11.476 23.725a.2.2 0 0 1-.139.287 149.418 149.418 0 0 1-28.289 2.739m-19.422-2.048c21.62 4.005 44.716-.491 47.37-1.038l-11.343-23.448-16-11.9-9.971 11.893a.2.2 0 0 1-.351-.083l-2.117-9.221z" transform="translate(-188.725 -100.952)" style="fill:#242022;fill-rule:evenodd"/>
            <path data-name="Path 8292" d="m315.616 322.89-7.389 50.59s19.331 3.339 38.84-4.242 33.16-12.387 33.16-12.387-7.01-13.517-16.7-35.006c0-.01-33.334 4.169-47.907 1.044" transform="translate(-178.796 -150.565)" style="fill:#fff;fill-rule:evenodd"/>
            <path data-name="Path 8293" d="M318.643 374.1a71.048 71.048 0 0 1-10.729-.717.2.2 0 0 1-.165-.228l7.39-50.591a.2.2 0 0 1 .242-.168c14.374 3.082 47.507-1.01 47.84-1.056a.2.2 0 0 1 .2.117c9.581 21.237 16.629 34.86 16.7 35a.2.2 0 0 1-.111.283c-.137.048-13.871 4.884-33.154 12.385a78.879 78.879 0 0 1-28.212 4.979m-10.467-1.074c2.077.315 20.344 2.807 38.542-4.272 17.959-6.989 31.112-11.664 32.946-12.321-.916-1.783-7.625-14.925-16.547-34.674-2.421.295-33.566 3.985-47.622 1.076z" transform="translate(-178.518 -150.275)" style="fill:#242022;fill-rule:evenodd"/>
            <path data-name="Path 8294" d="M483.318 451.769a.2.2 0 0 1-.161-.079l-4.807-6.284a.2.2 0 0 1 .133-.33.2.2 0 0 1 .188.086l4.807 6.281a.2.2 0 0 1-.16.325" transform="translate(-277.454 -221.998)" style="fill:#242022;fill-rule:evenodd"/>
            <path data-name="Path 8295" d="M336.35 326.026s-2.22 29.905 2.421 50.524" transform="translate(-194.802 -152.989)" style="fill:#fff;fill-rule:evenodd"/>
            <path data-name="Path 8296" d="M338.513 376.478a.2.2 0 0 1-.2-.158c-4.6-20.412-2.456-50.294-2.433-50.583a.2.2 0 1 1 .4.028c-.022.3-2.159 30.112 2.422 50.466a.2.2 0 0 1-.153.242.166.166 0 0 1-.034 0" transform="translate(-194.536 -152.713)" style="fill:#242022;fill-rule:evenodd"/>
            <path data-name="Path 8297" d="M353.5 327.747s.716 33.864 8.723 48.171" transform="translate(-205.06 -153.986)" style="fill:#fff;fill-rule:evenodd"/>
            <path data-name="Path 8298" d="M361.948 375.836a.2.2 0 0 1-.175-.1c-7.938-14.187-8.744-47.927-8.75-48.274a.2.2 0 0 1 .4 0c0 .338.807 33.977 8.7 48.072a.208.208 0 0 1-.178.305" transform="translate(-204.782 -153.702)" style="fill:#242022;fill-rule:evenodd"/>
            <path data-name="Path 8299" d="M371.87 326.959s3.37 34.577 12.834 44.955" transform="translate(-215.714 -153.529)" style="fill:#fff;fill-rule:evenodd"/>
            <path data-name="Path 8300" d="M384.426 371.845a.2.2 0 0 1-.15-.067c-3.949-4.331-7.319-13.234-10.015-26.46-2-9.837-2.861-18.52-2.869-18.607a.2.2 0 0 1 .18-.22.2.2 0 0 1 .149.045.2.2 0 0 1 .073.137c.032.346 3.471 34.63 12.782 44.84a.2.2 0 0 1-.012.287.213.213 0 0 1-.137.045" transform="translate(-215.437 -153.258)" style="fill:#242022;fill-rule:evenodd"/>
            <path data-name="Path 8301" d="M396.728 325.8s4.8 29.288 17.628 39.627" transform="translate(-230.134 -152.86)" style="fill:#fff;fill-rule:evenodd"/>
            <path data-name="Path 8302" d="M414.079 365.353a.2.2 0 0 1-.125-.045c-6.659-5.369-11.125-15.9-13.691-23.781a121.838 121.838 0 0 1-4.01-15.969.2.2 0 1 1 .4-.066c.049.293 4.934 29.338 17.556 39.5a.2.2 0 0 1-.133.359" transform="translate(-229.857 -152.58)" style="fill:#242022;fill-rule:evenodd"/>
            <path data-name="Path 8303" d="M420.327 324.051s8.134 28.56 16.577 37.222" transform="translate(-243.823 -151.844)" style="fill:#fff;fill-rule:evenodd"/>
            <path data-name="Path 8304" d="M436.612 361.174a.2.2 0 0 1-.145-.063c-8.38-8.6-16.547-37.019-16.626-37.3a.2.2 0 1 1 .388-.111c.081.285 8.217 28.611 16.527 37.135a.2.2 0 0 1-.143.343" transform="translate(-243.535 -151.547)" style="fill:#242022;fill-rule:evenodd"/>
            <path data-name="Path 8305" d="M390.916 488.1a.2.2 0 0 1-.2-.182l-.793-7.473a.2.2 0 1 1 .4-.042l.793 7.473a.2.2 0 0 1-.044.148.2.2 0 0 1-.136.074z" transform="translate(-226.185 -242.369)" style="fill:#242022;fill-rule:evenodd"/>
            <path data-name="Path 8306" d="m325.817 661.1-1.972-4.189a1.558 1.558 0 0 1 2.771-1.414l1.185 2.137c2.6-2.191 7.65-1.119 12.973-2.773 6.594-2.05 4.9-5.764 8.677-6.589 3.656-.808 11.1 1.2 13.262-.344a11.73 11.73 0 0 0-15.158-4.444A9.857 9.857 0 0 1 336 641.313l-3-3.232-.529-1.137s-9.65 7.675-18.837 9.19c-2.385 5.9-.963 10.778 1.554 16.623l1.564 3.635s6.669-1.234 9.058-5.3" transform="translate(-181.228 -333.22)" style="fill:#fff;fill-rule:evenodd"/>
            <path data-name="Path 8307" d="M316.516 666.253a.2.2 0 0 1-.186-.124l-1.562-3.635c-2.268-5.264-4.092-10.5-1.556-16.779a.2.2 0 0 1 .153-.123c9.03-1.495 18.65-9.073 18.744-9.15a.2.2 0 0 1 .309.075l.514 1.107 2.974 3.216a9.6 9.6 0 0 0 11.314 2.123 11.934 11.934 0 0 1 15.421 4.524.2.2 0 0 1-.057.269c-1.263.9-4.087.665-7.075.416a24.4 24.4 0 0 0-6.255-.04 4.2 4.2 0 0 0-2.861 2.292 9.211 9.211 0 0 1-5.81 4.294 31.288 31.288 0 0 1-6.681 1.115c-2.579.228-4.806.426-6.221 1.616a.2.2 0 0 1-.165.045.2.2 0 0 1-.141-.1l-1.185-2.137a1.359 1.359 0 1 0-2.421 1.236l1.974 4.189a.2.2 0 0 1 0 .19 11.424 11.424 0 0 1-5.521 4.242 20.24 20.24 0 0 1-3.668 1.123zm-2.972-20.273c-2.187 5.5-1.07 10.174 1.594 16.361l1.5 3.478c1.009-.212 6.545-1.527 8.7-5.049l-1.927-4.09a1.761 1.761 0 1 1 3.13-1.616l1.07 1.927c1.509-1.139 3.715-1.335 6.255-1.561a30.824 30.824 0 0 0 6.6-1.1 8.735 8.735 0 0 0 5.591-4.126 4.559 4.559 0 0 1 3.112-2.466 24.52 24.52 0 0 1 6.38.032c2.661.222 5.412.45 6.647-.243a11.534 11.534 0 0 0-14.793-4.2 10 10 0 0 1-11.787-2.21l-3-3.232a.211.211 0 0 1-.034-.053l-.422-.907c-1.439 1.1-10.249 7.627-18.619 9.057z" transform="translate(-180.976 -332.903)" style="fill:#242022;fill-rule:evenodd"/>
            <path data-name="Path 8308" d="m333.591 698.148-1.768-3.751c-2.395 4.064-9.05 5.272-9.05 5.272l1.136 2.64z" transform="translate(-187.234 -366.524)" style="fill:#7db950;fill-rule:evenodd"/>
            <path data-name="Path 8309" d="M323.626 702.237a.2.2 0 0 1-.186-.123l-1.136-2.64a.195.195 0 0 1 .143-.279c.065 0 6.593-1.238 8.913-5.175a.2.2 0 0 1 .357.016l1.766 3.753a.21.21 0 0 1-.109.271l-9.686 4.161a.213.213 0 0 1-.063.016m-.854-2.694.959 2.222 9.3-4-1.521-3.232a11.826 11.826 0 0 1-5.321 3.927 20.952 20.952 0 0 1-3.42 1.081" transform="translate(-186.951 -366.248)" style="fill:#242022;fill-rule:evenodd"/>
            <path data-name="Path 8310" d="M370.718 663.39c-3.784.824-2.09 4.539-8.677 6.589-5.323 1.654-10.374.582-12.973 2.773l3.3 5.952 32.141-14.714a11.59 11.59 0 0 0-.521-.943c-2.171 1.541-9.613-.454-13.27.343" transform="translate(-202.487 -348.351)" style="fill:#7db950;fill-rule:evenodd"/>
            <path data-name="Path 8311" d="M352.058 678.628a.2.2 0 0 1-.178-.1l-3.3-5.953a.2.2 0 0 1 .047-.252c1.513-1.277 3.8-1.479 6.445-1.715a30.818 30.818 0 0 0 6.6-1.1 8.735 8.735 0 0 0 5.592-4.127 4.558 4.558 0 0 1 3.112-2.466 24.534 24.534 0 0 1 6.38.032c2.785.232 5.662.471 6.809-.344a.2.2 0 0 1 .288.061c.2.329.373.644.529.96a.2.2 0 0 1-.1.272l-32.141 14.714a.2.2 0 0 1-.083.018m-3.027-6.1 3.126 5.641 31.782-14.542c-.1-.186-.2-.374-.313-.566-1.34.761-4.035.537-6.891.3a24.432 24.432 0 0 0-6.256-.04l-.044-.2.044.2a4.21 4.21 0 0 0-2.861 2.292 9.211 9.211 0 0 1-5.809 4.295 31.294 31.294 0 0 1-6.681 1.115c-2.516.214-4.683.4-6.1 1.507" transform="translate(-202.19 -348.072)" style="fill:#242022;fill-rule:evenodd"/>
            <path data-name="Path 8312" d="m97.009 352.595-1.271-2.953a10.06 10.06 0 0 0-6.676 2.8 9.592 9.592 0 0 1-2.649 1.838l1.955 4.151a1.558 1.558 0 0 1-2.77 1.414l-2.367-4.262a15.763 15.763 0 0 1-4.454.879c-2.859 0-4.252 4.789-9.127 6.124s-6.855-.388-11.109 3.4a13.1 13.1 0 0 1-7.581 3.373 11.736 11.736 0 0 0 13.69 2.5 9.854 9.854 0 0 1 11.55 2.167l3 3.232.527 1.137s8.293-5.93 17.489-7.445a23.834 23.834 0 0 0-.206-18.356" transform="translate(-29.563 -166.677)" style="fill:#fff;fill-rule:evenodd"/>
            <path data-name="Path 8313" d="M79.45 378.334a.155.155 0 0 1-.052 0 .2.2 0 0 1-.131-.109l-.512-1.109-2.977-3.216a9.6 9.6 0 0 0-11.314-2.123 11.879 11.879 0 0 1-13.923-2.555.2.2 0 0 1 .127-.34 12.82 12.82 0 0 0 7.466-3.321 9.664 9.664 0 0 1 6.976-2.807 20.131 20.131 0 0 0 4.213-.636 11.715 11.715 0 0 0 5.449-3.741c1.231-1.28 2.292-2.389 3.727-2.391a15.5 15.5 0 0 0 4.391-.868.2.2 0 0 1 .24.095l2.365 4.268a1.359 1.359 0 0 0 2.413-1.246l-1.953-4.151a.2.2 0 0 1 .091-.264 9.37 9.37 0 0 0 2.591-1.794 10.274 10.274 0 0 1 6.83-2.862.2.2 0 0 1 .179.121l1.272 2.951a24.19 24.19 0 0 1 .2 18.512.2.2 0 0 1-.153.123c-9.036 1.5-17.321 7.364-17.4 7.423a.2.2 0 0 1-.111.038m-10.737-7.962a10.01 10.01 0 0 1 7.361 3.232l3 3.231a.191.191 0 0 1 .034.053l.427.919c1.318-.9 8.96-5.928 17.261-7.336a23.777 23.777 0 0 0-.246-18.075l-1.211-2.828a9.855 9.855 0 0 0-6.393 2.735 9.288 9.288 0 0 1-2.533 1.79l1.871 3.975a1.762 1.762 0 0 1-3.134 1.606l-2.288-4.125a15.752 15.752 0 0 1-4.359.836c-1.261 0-2.22 1.01-3.43 2.268a12.264 12.264 0 0 1-5.638 3.85 20.59 20.59 0 0 1-4.29.651 9.342 9.342 0 0 0-6.736 2.7 13.413 13.413 0 0 1-7.283 3.375 11.471 11.471 0 0 0 13.17 2.181 10.089 10.089 0 0 1 4.417-1.036" transform="translate(-29.287 -166.401)" style="fill:#242022;fill-rule:evenodd"/>
            <path data-name="Path 8314" d="m131.139 345.932 1.776 3.8a9.818 9.818 0 0 0 2.649-1.838 10.082 10.082 0 0 1 6.675-2.8l-1.426-3.314z" transform="translate(-76.072 -162.123)" style="fill:#7db950;fill-rule:evenodd"/>
            <path data-name="Path 8315" d="M132.629 349.657a.17.17 0 0 1-.065-.012.185.185 0 0 1-.117-.105l-1.786-3.789a.213.213 0 0 1 0-.158.2.2 0 0 1 .109-.115l9.686-4.159a.2.2 0 0 1 .265.1l1.429 3.317a.2.2 0 0 1-.192.289 9.819 9.819 0 0 0-6.52 2.733 9.745 9.745 0 0 1-2.706 1.881.215.215 0 0 1-.1.014m-1.513-3.89 1.614 3.411a9.009 9.009 0 0 0 2.405-1.7 10.409 10.409 0 0 1 6.518-2.864l-1.227-2.848z" transform="translate(-75.787 -161.844)" style="fill:#242022;fill-rule:evenodd"/>
            <path data-name="Path 8316" d="M66.908 365.505c4.875-1.335 6.268-6.118 9.127-6.124a15.7 15.7 0 0 0 4.453-.878l-2.119-3.822L46.223 369.4a11.82 11.82 0 0 0 1.99 2.882 13.1 13.1 0 0 0 7.581-3.373c4.254-3.787 6.231-2.064 11.115-3.4" transform="translate(-26.814 -169.599)" style="fill:#7db950;fill-rule:evenodd"/>
            <path data-name="Path 8317" d="M47.942 372.2a.2.2 0 0 1-.147-.065 11.882 11.882 0 0 1-2.018-2.93.2.2 0 0 1 .1-.273l32.141-14.714a.2.2 0 0 1 .26.087l2.119 3.822a.2.2 0 0 1 .01.172.2.2 0 0 1-.125.117 15.979 15.979 0 0 1-4.516.889c-1.261 0-2.22 1.01-3.43 2.268a12.263 12.263 0 0 1-5.638 3.85 20.569 20.569 0 0 1-4.294.651 9.341 9.341 0 0 0-6.736 2.7 13.406 13.406 0 0 1-7.698 3.426zm-1.715-2.987a11.6 11.6 0 0 0 1.794 2.573 12.833 12.833 0 0 0 7.367-3.311 9.665 9.665 0 0 1 6.976-2.807 20.167 20.167 0 0 0 4.213-.636l.055.2-.055-.2a11.716 11.716 0 0 0 5.449-3.741c1.231-1.28 2.292-2.389 3.727-2.391a15.091 15.091 0 0 0 4.159-.794L78 354.673z" transform="translate(-26.543 -169.321)" style="fill:#242022;fill-rule:evenodd"/>
            <path data-name="Path 8318" d="M201.932 49.9a.175.175 0 0 1-.077-.016L159.7 32.552a.2.2 0 0 1 .024-.384l6.608-1.745a.2.2 0 0 1 .147.016l35.549 19.077a.2.2 0 0 1-.094.38zm-41.526-17.493 37.961 15.605-32.006-17.177z" transform="translate(-92.567 18.369)" style="fill:#242022;fill-rule:evenodd"/>
            <path data-name="Path 8319" d="M233.572 37.028a.2.2 0 0 1-.131-.048l-26.186-22.536a.2.2 0 0 1 .087-.349l5.975-1.315a.2.2 0 0 1 .2.066l20.213 23.849a.2.2 0 0 1-.155.333zM207.822 14.4 231.765 35l-18.48-21.814z" transform="translate(-120.184 28.595)" style="fill:#242022;fill-rule:evenodd"/>
            <path data-name="Path 8320" d="M306.259 34.537a.2.2 0 0 1-.127-.358L337.5 8.794a.2.2 0 0 1 .141-.045l6.82.485a.2.2 0 0 1 .1.369L306.369 34.5a.2.2 0 0 1-.109.032M337.7 9.16l-28.25 22.854 34.381-22.42z" transform="translate(-177.539 30.929)" style="fill:#242022;fill-rule:evenodd"/>
            <path data-name="Path 8321" d="M295.666 27.621a.2.2 0 0 1-.113-.034.2.2 0 0 1-.063-.266L310.9.1a.2.2 0 0 1 .182-.1l6.118.184a.2.2 0 0 1 .178.117.2.2 0 0 1-.026.2l-21.517 27.043a.2.2 0 0 1-.17.077M311.191.408 297.1 25.291 316.781.576z" transform="translate(-171.393 36)" style="fill:#242022;fill-rule:evenodd"/>
            <path data-name="Path 8322" d="M271.8 29.235a.2.2 0 0 1-.188-.131L261.7 2.9a.2.2 0 0 1 .013-.169.2.2 0 0 1 .136-.1l5.7-1.14a.2.2 0 0 1 .238.166L272.006 29a.2.2 0 0 1-.147.227.264.264 0 0 1-.055.006m-9.631-26.256 9.139 24.181-3.888-25.233z" transform="translate(-151.801 35.14)" style="fill:#242022;fill-rule:evenodd"/>
            <path data-name="Path 8323" d="M369.328 644.772a3.339 3.339 0 1 1-3.335 3.339 3.337 3.337 0 0 1 3.335-3.339" transform="translate(-212.305 -337.757)" style="fill:#fff;fill-rule:evenodd"/>
            <path data-name="Path 8324" d="M369.046 651.372a3.543 3.543 0 1 1 3.54-3.54 3.54 3.54 0 0 1-3.54 3.54m0-6.679a3.139 3.139 0 1 0 3.136 3.139 3.138 3.138 0 0 0-3.136-3.139" transform="translate(-212.023 -337.476)" style="fill:#242022;fill-rule:evenodd"/>
            <path data-name="Path 8325" d="M93.331 391.524a3.094 3.094 0 1 1-3.091 3.094 3.093 3.093 0 0 1 3.091-3.094" transform="translate(-52.347 -190.956)" style="fill:#fff;fill-rule:evenodd"/>
            <path data-name="Path 8326" d="M93.055 397.641a3.3 3.3 0 1 1 3.3-3.3 3.3 3.3 0 0 1-3.3 3.3m0-6.189a2.892 2.892 0 1 0 2.892 2.892 2.891 2.891 0 0 0-2.892-2.892" transform="translate(-52.071 -190.68)" style="fill:#242022;fill-rule:evenodd"/>
            <path data-name="Path 8327" d="M221.009 207.261a3.6 3.6 0 0 0 3.356.713" transform="translate(-128.203 -84.144)" style="fill:#fff;fill-rule:evenodd"/>
            <path data-name="Path 8328" d="M223.065 208.064a3.8 3.8 0 0 1-2.466-.909.2.2 0 0 1 .262-.307 3.353 3.353 0 0 0 1.412.717 3.4 3.4 0 0 0 1.766-.045.2.2 0 0 1 .115.386 3.751 3.751 0 0 1-1.09.158" transform="translate(-127.925 -83.876)" style="fill:#242022;fill-rule:evenodd"/>
            <path data-name="Path 8329" d="M219.3 191.735a3.6 3.6 0 0 0-2.716 3.129" transform="translate(-125.634 -75.144)" style="fill:#fff;fill-rule:evenodd"/>
            <path data-name="Path 8330" d="M216.3 194.787h-.02a.2.2 0 0 1-.182-.222 3.807 3.807 0 0 1 2.863-3.3.2.2 0 0 1 .1.392 3.4 3.4 0 0 0-2.557 2.957.2.2 0 0 1-.2.178" transform="translate(-125.353 -74.865)" style="fill:#242022;fill-rule:evenodd"/>
            <path data-name="Path 8331" d="M228.886 190.216a3.6 3.6 0 0 0-3.614-2.02" transform="translate(-130.676 -73.081)" style="fill:#fff;fill-rule:evenodd"/>
            <path data-name="Path 8332" d="M228.6 190.141a.2.2 0 0 1-.181-.115 3.4 3.4 0 0 0-3.412-1.9.2.2 0 0 1-.042-.4 3.792 3.792 0 0 1 3.818 2.125.2.2 0 0 1-.093.271.2.2 0 0 1-.089.024" transform="translate(-130.394 -72.805)" style="fill:#242022;fill-rule:evenodd"/>
            <path data-name="Path 8333" d="M223.686 198.044a.519.519 0 1 1-.519.519.519.519 0 0 1 .519-.519" transform="translate(-129.455 -78.801)" style="fill:#242022;fill-rule:evenodd"/>
            <path data-name="Path 8334" d="M223.407 199.006a.721.721 0 1 1 .721-.719.72.72 0 0 1-.721.719m0-1.036a.317.317 0 1 0 .224.093.317.317 0 0 0-.224-.093" transform="translate(-129.176 -78.523)" style="fill:#242022;fill-rule:evenodd"/>
            <path data-name="Path 8335" d="M229.52 194.9a.519.519 0 1 1-.519.519.519.519 0 0 1 .519-.519" transform="translate(-132.839 -76.977)" style="fill:#242022;fill-rule:evenodd"/>
            <path data-name="Path 8336" d="M229.241 195.858a.721.721 0 1 1 .509-.211.721.721 0 0 1-.509.211m0-1.036a.317.317 0 1 0 .317.315.316.316 0 0 0-.317-.315z" transform="translate(-132.56 -76.698)" style="fill:#242022;fill-rule:evenodd"/>
            <path data-name="Path 8337" d="m297.052 102.083-2.407-12.67a2.159 2.159 0 0 0-4.242.812l2.406 12.67" transform="translate(-168.435 -14.814)" style="fill:#fff;fill-rule:evenodd"/>
            <path data-name="Path 8338" d="M292.524 102.809a.2.2 0 0 1-.2-.166l-2.407-12.669a2.362 2.362 0 1 1 4.641-.882l2.409 12.662a.205.205 0 1 1-.4.074L294.16 89.16a1.957 1.957 0 1 0-3.834.731l2.4 12.671a.2.2 0 0 1-.162.236z" transform="translate(-168.15 -14.53)" style="fill:#242022;fill-rule:evenodd"/>
            <path data-name="Path 8339" d="m292.95 92.8-.141-.679a1.1 1.1 0 1 1 2.163-.448l.141.678z" transform="translate(-169.84 -16.629)" style="fill:#fff;fill-rule:evenodd"/>
            <path data-name="Path 8340" d="M292.657 92.66a.2.2 0 0 1-.2-.16l-.141-.679a1.308 1.308 0 1 1 2.559-.533l.139.678a.2.2 0 0 1-.155.24l-2.161.449a.16.16 0 0 1-.042 0m.942-2.008a.984.984 0 0 0-.186.018.905.905 0 0 0-.7 1.068l.1.481 1.765-.368-.1-.48a.9.9 0 0 0-.882-.719" transform="translate(-169.546 -16.287)" style="fill:#242022;fill-rule:evenodd"/>
            <path data-name="Path 8341" d="m286.9 103.592-2.4-12.668a2.159 2.159 0 1 0-4.242.806l2.407 12.67" transform="translate(-162.548 -15.686)" style="fill:#fff;fill-rule:evenodd"/>
            <path data-name="Path 8342" d="M282.382 104.322a.2.2 0 0 1-.2-.164l-2.405-12.67a2.362 2.362 0 1 1 4.641-.883l2.407 12.668a.2.2 0 0 1-.4.077l-2.405-12.67a1.958 1.958 0 1 0-3.846.733l2.407 12.668a.2.2 0 0 1-.032.152.2.2 0 0 1-.13.084z" transform="translate(-162.267 -15.407)" style="fill:#242022;fill-rule:evenodd"/>
            <path data-name="Path 8343" d="m282.8 94.317-.139-.679a1.1 1.1 0 1 1 2.161-.45l.141.678z" transform="translate(-163.954 -17.509)" style="fill:#fff;fill-rule:evenodd"/>
            <path data-name="Path 8344" d="M282.516 94.242a.2.2 0 0 1-.2-.161l-.141-.679a1.306 1.306 0 1 1 2.556-.531l.152.679a.2.2 0 0 1-.158.238l-2.161.451zm.942-2.01a.986.986 0 0 0-.186.018.905.905 0 0 0-.7 1.068l.1.481 1.767-.368-.1-.48a.9.9 0 0 0-.882-.719" transform="translate(-163.668 -17.231)" style="fill:#242022;fill-rule:evenodd"/>
            <path data-name="Path 8345" d="M519.366 495.075a.2.2 0 0 1-.2-.18l-1.184-10.451a.2.2 0 1 1 .4-.046l1.185 10.451a.2.2 0 0 1-.042.149.2.2 0 0 1-.135.075z" transform="translate(-300.468 -244.688)" style="fill:#242022;fill-rule:evenodd"/>
            <path data-name="Path 8346" d="M508.245 497.125a.2.2 0 0 1-.085-.386l10.606-4.813a.2.2 0 0 1 .168.368l-10.6 4.813a.206.206 0 0 1-.093.018" transform="translate(-294.704 -249.146)" style="fill:#242022;fill-rule:evenodd"/>
            <path data-name="Path 8347" d="M549.362 358.984a.2.2 0 0 1-.2-.141l-1.695-5.561a.2.2 0 0 1 .388-.117l1.695 5.558a.2.2 0 0 1-.135.253.206.206 0 0 1-.05.008" transform="translate(-317.568 -168.637)" style="fill:#242022;fill-rule:evenodd"/>
            <path data-name="Path 8348" d="m16.384 300.466-13.359 2.093a2.161 2.161 0 0 1-.793-4.25L16 295.738" transform="translate(-.276 -135.431)" style="fill:#fff;fill-rule:evenodd"/>
            <path data-name="Path 8349" d="M2.362 302.522a2.363 2.363 0 0 1-.424-4.688l13.762-2.572a.205.205 0 0 1 .075.4l-13.764 2.576a1.958 1.958 0 0 0 .71 3.852l13.363-2.1a.2.2 0 0 1 .06.4l-13.359 2.095a2.382 2.382 0 0 1-.424.037" transform="translate(-.002 -135.154)" style="fill:#242022;fill-rule:evenodd"/>
        </g>
    </g>
</svg>
