<svg xmlns="http://www.w3.org/2000/svg" width="22.5" height="19.5" viewBox="0 0 22.5 19.5">
    <g data-name="Group 181">
        <path data-name="Path 8167" d="M34.248 2.528a5.273 5.273 0 0 1 7.425 0 5.2 5.2 0 0 1 0 7.383" transform="translate(-21.46 -.25)" style="stroke:#fff;stroke-width:1.5px;fill:none"/>
        <path data-name="Path 8168" d="M34.248 2.528a5.273 5.273 0 0 1 7.425 0 5.2 5.2 0 0 1 0 7.383" transform="translate(-21.46 -.25)" style="stroke-linecap:round;stroke-linejoin:round;stroke:#fff;stroke-width:1.5px;fill:none"/>
        <path data-name="Line 165" transform="translate(11.25 2.278)" style="fill:#fff;stroke:#fff;stroke-width:1.5px" d="M1.538 0 0 1.351"/>
        <path data-name="Line 166" transform="translate(11.25 2.278)" style="stroke-linecap:round;stroke-linejoin:round;stroke:#fff;stroke-width:1.5px;fill:none" d="M1.538 0 0 1.351"/>
        <path data-name="Path 8169" d="M9.963 2.528a5.274 5.274 0 0 0-7.425 0 5.2 5.2 0 0 0 0 7.383" transform="translate(-.25 -.25)" style="stroke:#fff;stroke-width:1.5px;fill:none"/>
        <path data-name="Path 8170" d="M9.963 2.528a5.274 5.274 0 0 0-7.425 0 5.2 5.2 0 0 0 0 7.383" transform="translate(-.25 -.25)" style="stroke-linecap:round;stroke-linejoin:round;stroke:#fff;stroke-width:1.5px;fill:none"/>
        <path data-name="Line 167" transform="translate(9.713 2.278)" style="fill:#fff;stroke:#fff;stroke-width:1.5px" d="m0 0 1.537 1.351"/>
        <path data-name="Line 168" transform="translate(9.713 2.278)" style="stroke-linecap:round;stroke-linejoin:round;stroke:#fff;stroke-width:1.5px;fill:none" d="m0 0 1.537 1.351"/>
        <path data-name="Path 8171" d="m5.248 25.753 8.025 8.662a1.242 1.242 0 0 0 1.874 0l8.026-8.662" transform="translate(-2.96 -16.092)" style="stroke:#fff;stroke-width:1.5px;fill:none"/>
        <path data-name="Path 8172" d="m5.248 25.753 8.025 8.662a1.242 1.242 0 0 0 1.874 0l8.026-8.662" transform="translate(-2.96 -16.092)" style="stroke-linecap:round;stroke-linejoin:round;stroke:#fff;stroke-width:1.5px;fill:none"/>
    </g>
</svg>
