<svg xmlns="http://www.w3.org/2000/svg" width="19.5" height="19.5" viewBox="0 0 19.5 19.5">
    <g data-name="Group 535" transform="translate(.75 .75)">
        <path data-name="Line 202" transform="translate(10.862 16.138)" style="fill:none;stroke:#000;stroke-linecap:round;stroke-linejoin:round;stroke-width:1.5px" d="M7.138 0H0"/>
        <path data-name="Line 203" transform="translate(0 16.138)" style="fill:none;stroke:#000;stroke-linecap:round;stroke-linejoin:round;stroke-width:1.5px" d="M7.07 0H0"/>
        <path data-name="Line 204" transform="translate(7.448 1.862)" style="fill:none;stroke:#000;stroke-linecap:round;stroke-linejoin:round;stroke-width:1.5px" d="M10.552 0H0"/>
        <path data-name="Line 205" transform="translate(0 1.862)" style="fill:none;stroke:#000;stroke-linecap:round;stroke-linejoin:round;stroke-width:1.5px" d="M3.6 0H0"/>
        <path data-name="Line 206" transform="translate(14.586 9)" style="fill:none;stroke:#000;stroke-linecap:round;stroke-linejoin:round;stroke-width:1.5px" d="M3.414 0H0"/>
        <path data-name="Line 207" transform="translate(0 9)" style="fill:none;stroke:#000;stroke-linecap:round;stroke-linejoin:round;stroke-width:1.5px" d="M10.8 0H0"/>
        <circle data-name="Ellipse 36" cx="1.862" cy="1.862" r="1.862" transform="translate(10.862 7.138)" style="fill:none;stroke:#000;stroke-linecap:round;stroke-linejoin:round;stroke-width:1.5px"/>
        <circle data-name="Ellipse 37" cx="1.862" cy="1.862" r="1.862" transform="translate(3.724)" style="fill:none;stroke:#000;stroke-linecap:round;stroke-linejoin:round;stroke-width:1.5px"/>
        <path data-name="Path 8182" d="M25.862 47A1.862 1.862 0 1 1 24 48.862 1.861 1.861 0 0 1 25.862 47z" transform="translate(-16.862 -32.724)" style="fill:none;stroke:#000;stroke-linecap:round;stroke-linejoin:round;stroke-width:1.5px"/>
    </g>
</svg>
