<svg xmlns="http://www.w3.org/2000/svg" width="24" height="21" viewBox="0 0 24 21">
    <g data-name="Group 560">
        <path data-name="Path 8354" d="M34.248 2.7a5.717 5.717 0 0 1 8.132 0 5.839 5.839 0 0 1 0 8.2" transform="translate(-20.563 -.5)" style="stroke:#1d1d21;fill:none"/>
        <path data-name="Path 8355" d="M34.248 2.7a5.717 5.717 0 0 1 8.132 0 5.839 5.839 0 0 1 0 8.2" transform="translate(-20.563 -.5)" style="stroke-linecap:round;stroke-linejoin:round;stroke:#1d1d21;fill:none"/>
        <path data-name="Line 214" transform="translate(12 2.198)" style="fill:#fff;stroke:#1d1d21" d="M1.685 0 0 1.502"/>
        <path data-name="Line 215" transform="translate(12 2.198)" style="stroke-linecap:round;stroke-linejoin:round;stroke:#1d1d21;fill:none" d="M1.685 0 0 1.502"/>
        <path data-name="Path 8356" d="M10.817 2.7a5.718 5.718 0 0 0-8.132 0 5.836 5.836 0 0 0 0 8.2" transform="translate(-.5 -.5)" style="stroke:#1d1d21;fill:none"/>
        <path data-name="Path 8357" d="M10.817 2.7a5.718 5.718 0 0 0-8.132 0 5.836 5.836 0 0 0 0 8.2" transform="translate(-.5 -.5)" style="stroke-linecap:round;stroke-linejoin:round;stroke:#1d1d21;fill:none"/>
        <path data-name="Line 216" transform="translate(10.317 2.198)" style="fill:#fff;stroke:#1d1d21" d="m0 0 1.683 1.502"/>
        <path data-name="Line 217" transform="translate(10.317 2.198)" style="stroke-linecap:round;stroke-linejoin:round;stroke:#1d1d21;fill:none" d="m0 0 1.683 1.502"/>
        <path data-name="Path 8358" d="m5.248 25.753 8.79 9.625a1.348 1.348 0 0 0 2.052 0l8.79-9.625" transform="translate(-3.063 -15.352)" style="stroke:#1d1d21;fill:none"/>
        <path data-name="Path 8359" d="m5.248 25.753 8.79 9.625a1.348 1.348 0 0 0 2.052 0l8.79-9.625" transform="translate(-3.063 -15.352)" style="stroke-linecap:round;stroke-linejoin:round;stroke:#1d1d21;fill:none"/>
    </g>
</svg>
