<svg xmlns="http://www.w3.org/2000/svg" width="164" height="20" viewBox="0 0 164 20">
    <defs>
        <linearGradient id="i1jej9zkqa" x1="-.239" y1="-.513" x2="1.296" y2="1.166" gradientUnits="objectBoundingBox">
            <stop offset="0" stop-color="#3a316c"/>
            <stop offset="1" stop-color="#5494ce"/>
        </linearGradient>
    </defs>
    <g transform="translate(-26.2 -53)">
        <path data-name="Path 8178" d="M1.2-11.055h8.4v2.13H3.387v2.31h4.508v2.16H3.387v2.31H9.6V0H1.2zm10.2 0h4.733a4.928 4.928 0 0 1 1.917.375 4.895 4.895 0 0 1 1.65 1.11 5.528 5.528 0 0 1 1.558 4.035 5.579 5.579 0 0 1-1.558 4.05 4.892 4.892 0 0 1-1.65 1.11A4.928 4.928 0 0 1 16.133 0H11.4zm4.688 8.925a2.688 2.688 0 0 0 2.157-.975 3.6 3.6 0 0 0 .824-2.43 3.578 3.578 0 0 0-.824-2.415 2.7 2.7 0 0 0-2.157-.99h-2.5v6.81zM27.665.12a4.59 4.59 0 0 1-3.43-1.38A4.892 4.892 0 0 1 22.9-4.83v-6.225h2.187V-4.8a2.819 2.819 0 0 0 .794 2.13 2.44 2.44 0 0 0 1.782.63 2.547 2.547 0 0 0 1.812-.63 2.789 2.789 0 0 0 .794-2.13v-6.255h2.172v6.225a4.924 4.924 0 0 1-1.331 3.57A4.577 4.577 0 0 1 27.665.12z" transform="translate(25 69)" style="fill:#1d1d21"/>
        <path data-name="Path 8177" d="M4.763-11.055h2.112L11.563 0h-2.4l-1.21-2.895H3.685L2.471 0H.075zm2.307 6.06-1.258-3-1.243 3zm5.766-6.06h5.317a4.05 4.05 0 0 1 2.8.975 3.447 3.447 0 0 1 1.078 2.67 3.517 3.517 0 0 1-.472 1.867 2.988 2.988 0 0 1-1.385 1.177l-.285.105L22.437 0H19.86l-2.2-3.84h-2.637V0h-2.187zm5.107 5.085a1.929 1.929 0 0 0 1.768-.73 1.448 1.448 0 0 0 .15-.7 1.379 1.379 0 0 0-.461-1.1 2.112 2.112 0 0 0-1.4-.44h-2.977v2.97zM29 .09a4.988 4.988 0 0 1-3.939-1.665 5.8 5.8 0 0 1-1.423-3.99 5.74 5.74 0 0 1 1.42-3.975A5.045 5.045 0 0 1 29-11.2a5.446 5.446 0 0 1 3.175.975 4.72 4.72 0 0 1 1.767 2.295l-1.947.885h-.015l-.135-.315a2.709 2.709 0 0 0-1-1.23 2.771 2.771 0 0 0-1.588-.465 3.932 3.932 0 0 0-1.573.27 2.934 2.934 0 0 0-1.018.72 3.634 3.634 0 0 0-.839 2.5 3.7 3.7 0 0 0 .833 2.505 3.237 3.237 0 0 0 2.591.99 2.747 2.747 0 0 0 1.588-.45 2.568 2.568 0 0 0 1-1.23l.135-.33h.015l1.947.9a5.04 5.04 0 0 1-1.767 2.3A5.4 5.4 0 0 1 29 .09zm6.74-11.145h2.187v4.44h4.763v-4.44h2.172V0h-2.176v-4.455h-4.763V0h-2.186zm11.518 0h2.187V0h-2.19zm3.46 0h2.366l3.1 7.815 3.1-7.815h2.381L57.185 0h-2.007zm12.222 0h8.4v2.13h-6.217v2.31h4.508v2.16h-4.508v2.31h6.216V0h-8.4z" transform="translate(118.861 69)" style="fill:#1d1d21"/>
        <rect width="49.925" height="20" rx="10" transform="translate(63.944 53)" style="fill:url(#i1jej9zkqa)"/>
    </g>
</svg>
