<svg xmlns="http://www.w3.org/2000/svg" width="19.5" height="19.5" viewBox="0 0 19.5 19.5">
    <g data-name="Group 178">
        <path data-name="Path 8164" d="M47.966 3.483A2.483 2.483 0 1 1 45.482 1a2.482 2.482 0 0 1 2.484 2.483z" transform="translate(-29.216 -.25)" style="stroke-miterlimit:10;fill:none;stroke:#fff;stroke-linecap:round;stroke-width:1.5px"/>
        <path data-name="Path 8165" d="M47.966 45.483A2.483 2.483 0 1 1 45.482 43a2.482 2.482 0 0 1 2.484 2.483z" transform="translate(-29.216 -29.216)" style="stroke-miterlimit:10;fill:none;stroke:#fff;stroke-linecap:round;stroke-width:1.5px"/>
        <path data-name="Path 8166" d="M5.966 24.483A2.483 2.483 0 1 1 3.482 22a2.482 2.482 0 0 1 2.484 2.483z" transform="translate(-.25 -14.733)" style="stroke-miterlimit:10;fill:none;stroke:#fff;stroke-linecap:round;stroke-width:1.5px"/>
        <path data-name="Line 163" transform="translate(5.453 4.343)" style="stroke-linejoin:round;fill:none;stroke:#fff;stroke-linecap:round;stroke-width:1.5px" d="M8.593 0 0 4.297"/>
        <path data-name="Line 164" transform="translate(5.453 10.86)" style="stroke-linejoin:round;fill:none;stroke:#fff;stroke-linecap:round;stroke-width:1.5px" d="m0 0 8.593 4.297"/>
    </g>
</svg>
